<?xml version="1.0" encoding="utf-8"?>
<!-- Generator: Adobe Illustrator 26.5.1, SVG Export Plug-In . SVG Version: 6.00 Build 0)  -->
<svg version="1.1" id="Layer_1" xmlns="http://www.w3.org/2000/svg" xmlns:xlink="http://www.w3.org/1999/xlink" x="0px" y="0px"
	 viewBox="0 0 864 152.7" style="enable-background:new 0 0 864 152.7;" xml:space="preserve">
<style type="text/css">
	.st0{fill:#3A57A3;}
	.st1{fill:#B2519C;}
</style>
<g>
	<path class="st0" d="M540.1,0c0,4.8-0.1,9.7,0,14.5c0,1.1-0.3,1.3-1.4,1.3c-43,0-86.1,0-129.1,0c-1.1,0-1.4-0.2-1.4-1.3
		c0.1-4.8,0-9.7,0-14.5C452.2,0,496.2,0,540.1,0z"/>
	<path class="st0" d="M381.8,15.8c-0.5,0-1,0-1.4,0c-41.1,0-82.3,0-123.4,0c-1.3,0-1.6-0.2-1.6-1.6c0.1-4.8,0-9.5,0-14.2
		c42.1,0,84.3,0,126.4,0C381.8,5.3,381.8,10.5,381.8,15.8z"/>
	<path class="st0" d="M671.8,15.8c-0.4,0-0.9,0-1.3,0c-25.4,0-50.8,0-76.2,0c-1.2,0-1.7-0.3-1.5-1.5c0.2-1.2-0.5-2.9,0.3-3.6
		c0.7-0.6,2.3-0.3,3.5-0.2c1.2,0.1,1.6-0.3,1.5-1.5c-0.1-1.2-0.6-2.8,0.2-3.6c0.7-0.7,2.3-0.2,3.5-0.2c1.1,0,1.6-0.2,1.5-1.4
		c-0.1-1.3-0.1-2.6-0.1-3.9c22.8,0,45.7,0,68.5,0C671.7,5.3,671.7,10.5,671.8,15.8z"/>
	<path class="st0" d="M134.2,0c0,3.5,0,6.9-0.1,10.4c-1.5,0-2.9,0-4.4,0c-0.7,0-1,0.2-1,1c0.1,1.5,0,2.9,0,4.4c-0.4,0-0.9,0-1.3,0
		c-18.4,0-36.8,0-55.3,0c-1.2,0-1.5-0.3-1.4-1.4c0.1-0.9,0.1-1.9,0-2.9c-0.1-0.8,0.2-1.1,1-1c1.1,0.1,2.2,0,3.2,0c0.8,0,1.1-0.2,1-1
		c-0.1-1.2,0-2.3,0-3.5c0-0.6,0.2-0.8,0.8-0.8c1.1,0,2.2-0.1,3.4,0c1,0.1,1.2-0.3,1.2-1.2c-0.1-1.3,0-2.7,0-4
		C99.1,0,116.6,0,134.2,0z"/>
	<path class="st0" d="M223.7,15.8c-10.4,0-20.7,0-31.1,0c-3.3,0-6.6,0-9.9,0c-0.9,0-1.2-0.2-1.2-1.1c0.1-1.3-0.4-3,0.2-3.9
		c0.7-0.9,2.5-0.3,3.8-0.3c1.1,0,1.3-0.4,1.2-1.3c-0.1-1,0-2,0-3c-0.1-0.8,0.2-1.1,1-1c1.1,0.1,2.2,0,3.4,0c0.6,0,0.9-0.1,0.9-0.9
		c-0.1-1.5-0.1-2.9-0.1-4.4c10.6,0,21.1,0,31.7,0C223.7,5.3,223.7,10.5,223.7,15.8z"/>
	<path class="st0" d="M735,15.8c-6.1,0-12.3,0-18.4,0c-4,0-8,0-12,0c-0.5,0-1.1,0.2-1.1-0.7c0-5,0.1-10.1,0.1-15.1
		c10.5,0,20.9,0,31.4,0C735,5.3,735,10.5,735,15.8z"/>
	<path class="st1" d="M835.2,126.4c3.5-0.1,7.1-0.1,10.6,0c0,8.7,0,17.4,0,26.2c-3.5,0-7.1,0-10.6-0.1
		C835.2,143.9,835.2,135.2,835.2,126.4z"/>
	<path class="st1" d="M223.7,15.8c0-5.2,0-10.5,0-15.8c5.3,0,10.6,0,15.8,0c0,5,0,9.9,0,14.8c0,0.7-0.1,1-0.9,1
		C233.7,15.8,228.7,15.8,223.7,15.8z"/>
	<path class="st1" d="M671.8,15.8c0-5.2,0-10.5,0-15.8c5.3,0,10.5,0,15.8,0c0,5,0,10,0.1,15c0,0.6-0.2,0.8-0.8,0.8
		C681.8,15.8,676.8,15.8,671.8,15.8z"/>
	<path class="st1" d="M735,15.8c0-5.2,0-10.5,0-15.8c5.3,0,10.5,0,15.8,0c0,5,0,9.9,0,14.9c0,0.6-0.1,1-0.8,0.9
		C745.1,15.8,740.1,15.8,735,15.8z"/>
	<path class="st1" d="M381.8,15.8c0-5.2,0-10.5,0-15.8c3.5,0,7.1,0,10.6,0c0,5,0,10.1,0.1,15.1c0,0.7-0.4,0.7-0.9,0.7
		C388.3,15.8,385.1,15.8,381.8,15.8z"/>
	<path class="st0" d="M835.2,126.4c0,8.7,0,17.4,0,26.1c-0.5,0-1,0.1-1.4,0.1c-42.9,0-85.8,0-128.7,0c-1.3,0-1.6-0.4-1.6-1.6
		c0.1-7.8,0-15.5,0-23.3c0-1.1,0.2-1.4,1.3-1.4c43.1,0,86.1,0,129.2,0C834.5,126.4,834.9,126.4,835.2,126.4z"/>
	<path class="st0" d="M382,152.6c-0.5,0-1,0-1.4,0c-41.2,0-82.4,0-123.6,0c-1.4,0-1.6-0.4-1.6-1.6c0.1-7.8,0-15.6,0-23.4
		c0-0.9,0.2-1.2,1.2-1.2c41.6,0,83.1,0,124.7,0c0.3,0,0.5,0,0.8,0.1C382,135.1,382,143.9,382,152.6z"/>
	<path class="st0" d="M671.8,94.7c-0.5,0-1,0.1-1.4,0.1c-49.9,0-99.8,0-149.7,0c-1.3,0-1.7-0.2-1.7-1.6c0.1-2.7,0.1-5.3,0-8
		c0-0.8,0.2-1.1,1-1c1.1,0.1,2.2,0,3.4,0c0.7,0,0.9-0.2,0.9-0.9c0-1.1,0-2.2,0-3.4c0-0.8,0.3-1,1-1c1.1,0.1,2.2,0,3.4,0
		c0.7,0,0.9-0.2,0.9-0.9c0-1.2,0-2.3,0-3.5c0-0.8,0.2-1,1-0.9c0.2,0,0.4,0,0.7,0c46.4,0,92.8,0,139.2,0c0.5,0,1,0,1.4,0.1
		C671.8,80.7,671.8,87.7,671.8,94.7z"/>
	<path class="st0" d="M381.8,84.2c-0.4,0-0.9,0-1.3,0c-25.4,0-50.8,0-76.2,0c-1.2,0-1.5-0.3-1.5-1.5c0.1-6.2,0-12.3,0-18.5
		c0-0.8,0.2-1.1,1.1-1.1c25.8,0,51.5,0,77.3,0c0.2,0,0.3,0,0.5,0.1C381.8,70.2,381.8,77.2,381.8,84.2z"/>
	<path class="st0" d="M128.8,42.1c-0.5,0-0.9,0.1-1.4,0.1c-27.1,0-54.2,0-81.3,0c-1.3,0-1.7-0.4-1.6-1.7c0.1-0.9,0.1-1.9,0-2.8
		c0-0.7,0.2-0.9,0.9-0.9c1,0,2-0.1,3,0c1.3,0.2,1.6-0.4,1.5-1.6c-0.1-1,0-2,0-3c0-0.6,0.2-0.8,0.8-0.7c1.2,0,2.3,0,3.5,0
		c0.8,0,1-0.3,1-1c-0.1-1.1,0-2.2,0-3.4c0-0.7,0.2-0.9,0.9-0.9c1,0,2-0.1,3,0c1.3,0.1,1.7-0.4,1.5-1.6c-0.1-0.9,0-1.9,0-2.8
		c0-0.8,0.2-1,1-0.9c0.1,0,0.2,0,0.3,0c22.1,0,44.2,0,66.3,0c0.3,0,0.6,0,0.9,0C128.8,28.1,128.8,35.1,128.8,42.1z"/>
	<path class="st0" d="M134.2,52.6c4.9,0,9.8,0,14.6,0c0.8,0,1.2-0.2,1.1-1.1c-0.1-1,0.1-2,0-3c-0.1-1,0.3-1.2,1.2-1.2
		c8,0,16.1,0,24.1,0c2.1,0,4.1,0,6.2,0c0,1.3-0.1,2.7,0,4c0.1,0.9-0.3,1.2-1.2,1.2c-2.8-0.1-5.6,0-8.4,0c-0.8,0-1.1,0.2-1.1,1
		c0.1,1.1,0,2.2,0,3.4c0,0.6-0.2,0.8-0.8,0.8c-1.1,0-2.2,0-3.4,0c-0.7,0-1,0.3-1,1c0,1.1,0,2.2,0,3.4c0,0.7-0.2,0.9-0.9,0.9
		c-1.1,0-2.2,0-3.4,0c-0.7,0-1,0.2-1,1c0,1.5,0,2.9,0,4.4c-0.4,0-0.7,0-1,0c-20.2,0-40.4,0-60.6,0.1c-1.3,0-1.6-0.3-1.5-1.6
		c0.1-4.8,0-9.5,0-14.2c0.2-1.7,0.1-3.5,0.1-5.2c3.1,0,6.1,0,9.2-0.1c7,0,13.9,0,20.9,0c0.5,0,1,0,1.4,0.1c0,3.2,0,6.4,0,9.6
		c0,0.7,0.2,1,0.9,1c1.2-0.1,2.4,0,3.6,0c0.7,0,0.9-0.2,0.9-0.9C134.2,55.6,134.2,54.1,134.2,52.6z"/>
	<path class="st0" d="M91.9,52.6c-1.7,0-3.4,0.1-5.2,0.1c-1.6,0-3.1,0-4.7-0.1c-0.6,0-0.8,0.2-0.8,0.8c0,1.1,0,2.2,0,3.4
		c0,0.8-0.2,1-1,1c-2.6,0-5.2,0-7.8,0c-1.6,0-1.6,0-1.6,1.7c0,3,0,5.9,0,8.9c-0.4,0-0.8,0.1-1.2,0.1c-16.7,0-33.5,0-50.2,0
		c-1,0-1.4-0.2-1.4-1.3c0.1-2.8,0.1-5.5,0-8.3c0-0.8,0.2-1.1,1-1c1.1,0.1,2.2,0,3.2,0c0.8,0,1.1-0.2,1-1c-0.1-1,0-2.1,0-3.1
		c-0.1-0.9,0.2-1.2,1.1-1.2c1.1,0.1,2.2,0,3.4,0c0.6,0,0.9-0.2,0.8-0.8c0-1.2,0-2.3,0-3.5c0-0.8,0.2-1,1-0.9c0.1,0,0.2,0,0.3,0
		c20.4,0,40.7,0,61.1,0c0.3,0,0.6,0,0.9,0.1C91.9,49.2,91.9,50.9,91.9,52.6z"/>
	<path class="st0" d="M223.8,42.1c-0.4,0.2-0.9,0.1-1.3,0.1c-20.2,0-40.4,0-60.6,0c-1.2,0-1.6-0.2-1.5-1.5c0.2-1.3-0.5-2.9,0.3-3.7
		c0.7-0.7,2.4-0.2,3.6-0.2c1.1,0.1,1.6-0.2,1.5-1.5c-0.1-1.2-0.6-2.9,0.2-3.6c0.7-0.6,2.3-0.3,3.5-0.2c1.2,0.1,1.5-0.3,1.5-1.5
		c-0.1-1.2-0.6-2.9,0.2-3.6c0.7-0.6,2.3-0.3,3.5-0.2c1.1,0.1,1.7-0.2,1.5-1.5c-0.1-0.9,0-1.8,0-2.7c-0.1-0.9,0.3-1.2,1.2-1.2
		c4.9,0,9.9,0,14.8,0c10,0,20,0,30,0c0.5,0,1,0,1.6,0C223.7,28.1,223.8,35.1,223.8,42.1z"/>
	<path class="st0" d="M55,152.6c-5.6,0-11.2,0-16.9,0c-6.3,0-12.5,0-18.8,0c-0.8,0-1.1-0.1-1.1-1c0-8.1,0-16.1,0-24.2
		c0-0.6,0.1-1,0.9-1c12,0,24,0.1,35.9,0.1C55,135.1,55,143.9,55,152.6z"/>
	<path class="st0" d="M555.7,152.6c-3.9,0-7.9,0.1-11.8,0.1c-7.9,0-15.7,0-23.6,0c-0.9,0-1.3-0.1-1.3-1.2c0.1-7.9,0-15.9,0-23.8
		c0-0.6-0.1-1.2,0.9-1.2c11.8,0,23.7,0,35.6,0c0.1,0,0.2,0,0.2,0.1C555.8,135.1,555.7,143.9,555.7,152.6z"/>
	<path class="st0" d="M134,94.6c-4,0-8,0-12.1,0c-7.8,0-15.6,0-23.3,0c-0.9,0-1.3-0.1-1.3-1.2c0.1-6.2,0-12.5,0-18.8
		c0-0.8,0.1-1.1,1-1.1c17,0,34,0,50.9,0c0.2,0,0.3,0,0.5,0.1c0,1.4-0.1,2.8,0,4.3c0,0.8-0.2,1.1-1,1.1c-1-0.1-2,0-3,0
		c-0.9-0.1-1.3,0.2-1.3,1.2c0.1,1,0,2,0,3c0,0.6-0.2,0.8-0.8,0.8c-1,0-2.1,0-3.1,0c-0.9-0.1-1.4,0.2-1.3,1.2c0.1,1,0,2.1,0,3.1
		c0.1,0.8-0.2,1.2-1.1,1.1c-1-0.1-2.1,0-3.1,0c-0.9-0.1-1.3,0.2-1.3,1.2C134,92,134,93.3,134,94.6z"/>
	<path class="st0" d="M671.9,152.6c-10.3,0-20.6,0-30.9,0.1c-0.7,0-0.8-0.2-0.8-0.8c0-8.2,0-16.4,0-24.6c0-0.9,0.5-0.8,1.1-0.8
		c4.3,0,8.7,0,13,0c5.9,0,11.8,0,17.6,0.1C671.9,135.1,671.9,143.9,671.9,152.6z"/>
	<path class="st0" d="M482,152.6c-2.9,0-5.7,0.1-8.6,0.1c-7.3,0-14.5,0-21.8,0c-0.8,0-1.2-0.1-1.2-1.1c0-8,0-16.1,0-24.1
		c0-0.7,0-1.1,1-1.1c10.1,0,20.2,0,30.4,0c0.1,0,0.2,0,0.2,0.1C482,135.1,482,143.9,482,152.6z"/>
	<path class="st0" d="M55,94.7c-5,0-10,0-15,0.1c-6.9,0-13.7,0-20.6,0c-1,0-1.2-0.2-1.2-1.2c0-6.3,0-12.5,0-18.8
		c0-0.7-0.1-1.2,1-1.2c11.9,0,23.8,0,35.7,0c0.1,0,0.2,0,0.3,0C55,80.7,55,87.7,55,94.7z"/>
	<path class="st0" d="M55,121c-6.3,0-12.6,0-18.9,0.1c-5.6,0-11.2,0-16.7,0c-1,0-1.2-0.2-1.2-1.2c0-6.3,0-12.5,0-18.8
		c0-0.6-0.1-1.1,0.8-1.1c12,0,24,0.1,36.1,0.1C55,107.1,55,114,55,121z"/>
	<path class="st0" d="M555.7,121c-6,0-11.9,0-17.9,0.1c-5.9,0-11.8,0-17.6,0c-1,0-1.2-0.2-1.2-1.2c0-6.2,0-12.4,0-18.6
		c0-0.7-0.1-1.2,1-1.2c11.8,0,23.7,0,35.5,0c0.1,0,0.2,0,0.2,0.1C555.7,107,555.7,114,555.7,121z"/>
	<path class="st0" d="M482,94.7c-3.4,0-6.7,0.1-10.1,0.1c-6.7,0-13.4,0-20.1,0c-1,0-1.3-0.2-1.3-1.3c0-6.2,0-12.4,0-18.6
		c0-0.8,0-1.3,1-1.3c10,0,20,0,30,0c0.2,0,0.3,0,0.5,0.1C482,80.7,482,87.7,482,94.7z"/>
	<path class="st0" d="M735,94.7c-3.5,0-7.1,0.1-10.6,0.1c-6.5,0-13.1,0-19.6,0c-0.9,0-1.2-0.2-1.2-1.2c0-6.3,0-12.5,0-18.8
		c0-0.7-0.1-1.2,1-1.2c10,0,20.1,0,30.1,0c0.1,0,0.3,0,0.4,0.1C735,80.7,735,87.7,735,94.7z"/>
	<path class="st0" d="M671.9,121c-5.1,0-10.2,0-15.3,0.1c-5.1,0-10.2,0-15.3,0c-0.7,0-1.1,0-1.1-0.9c0-6.4,0-12.8,0-19.2
		c0-0.6,0-0.9,0.8-0.9c10.3,0,20.6,0,30.9,0.1C671.9,107.1,671.9,114,671.9,121z"/>
	<path class="st0" d="M598,42c-1.7,0-3.5,0.1-5.2,0.1c-8.3,0-16.7,0-25,0c-1,0-1.4-0.2-1.3-1.3c0.1-0.9,0.1-1.9,0-2.8
		c-0.1-1,0.3-1.2,1.2-1.1c1,0.1,2.1,0,3.1,0c0.7,0,0.9-0.2,0.9-0.9c0-1.1,0-2.2,0-3.4c0-0.8,0.2-1.1,1-1c1.1,0.1,2.2,0,3.4,0
		c0.7,0,1-0.2,1-0.9c-0.1-1.1,0-2.2,0-3.4c-0.1-0.8,0.3-1,1-1c1,0.1,2.1,0,3.1,0c1,0.1,1.2-0.3,1.1-1.2c-0.1-1.1,0-2.2,0-3.4
		c0-0.6,0.2-0.8,0.8-0.8c10.3,0,20.6,0,30.9,0.1c0,1.4,0,2.8,0,4.1c0,0.7-0.2,1-1,1c-1,0-2.1,0-3.1,0c-0.9-0.1-1.2,0.3-1.1,1.2
		c0.1,0.9,0,1.9,0,2.8c0.1,1-0.2,1.5-1.3,1.4c-1-0.1-2,0-3,0c-0.9-0.1-1.2,0.3-1.2,1.2c0.1,0.9,0,1.9,0,2.8c0.1,1-0.3,1.3-1.3,1.2
		c-0.9-0.1-1.8,0-2.7,0c-0.9-0.1-1.3,0.2-1.3,1.2C598.1,39.3,598,40.7,598,42z"/>
	<path class="st0" d="M571.6,68.4c-5.6,0-11.2,0-16.7,0.1c-4.5,0-9.1,0-13.6,0c-1,0-1.3-0.3-1.2-1.2c0.2-1.3-0.6-3,0.3-3.8
		c0.8-0.8,2.5-0.2,3.8-0.2c1.1,0.1,1.3-0.3,1.2-1.3c-0.1-1,0-2,0-3c-0.1-0.9,0.3-1.1,1.1-1.1c1.1,0.1,2.2,0,3.4,0
		c0.7,0,0.9-0.2,0.9-0.9c0-1.2,0-2.4,0-3.6c0-0.6,0.2-0.8,0.8-0.7c1,0,2.1-0.1,3.1,0c1.2,0.2,1.5-0.4,1.4-1.4c-0.1-0.8,0-1.7,0-2.6
		c-0.1-1,0.2-1.2,1.2-1.2c5.5,0,11,0,16.5,0c4.6,0,9.2,0,13.9,0.1c0,1.4,0,2.9,0,4.3c0,0.7-0.2,0.9-0.9,0.9c-1.2,0-2.3,0-3.5,0
		c-0.6,0-0.8,0.2-0.8,0.8c0,1.1,0,2.2,0,3.4c0,0.8-0.3,1.1-1,1c-1-0.1-2,0.1-3,0c-1-0.1-1.3,0.3-1.2,1.2c0.1,0.9,0,1.9,0,2.8
		c0.1,0.9-0.3,1.2-1.2,1.1c-1-0.1-2,0-3,0c-0.9-0.1-1.3,0.2-1.3,1.2C571.6,65.6,571.6,67,571.6,68.4z"/>
	<path class="st0" d="M735,68.4c-6.1,0-12.3,0-18.4,0.1c-4,0-8,0-11.9,0c-0.9,0-1.2-0.2-1.2-1.1c0-6.3,0-12.5,0-18.8
		c0-0.6-0.1-1.1,0.9-1.1c10.1,0,20.2,0,30.4,0c0.1,0,0.2,0,0.2,0C735,54.4,735,61.4,735,68.4z"/>
	<path class="st0" d="M671.8,42c-2,0-4,0.1-6,0.1c-8.1,0-16.2,0-24.3,0c-1,0-1.3-0.2-1.3-1.3c0-6.2,0-12.4,0-18.7
		c0-0.8,0.1-1.2,1-1.2c10,0,20,0,30,0c0.2,0,0.3,0,0.5,0.1C671.8,28.1,671.8,35,671.8,42z"/>
	<path class="st0" d="M482,42c-1.7,0-3.5,0.1-5.2,0.1c-8.3,0-16.7,0-25,0c-0.9,0-1.4-0.1-1.3-1.2c0.1-6.3,0-12.5,0-18.8
		c0-0.7,0-1.1,0.9-1.1c10.1,0,20.2,0,30.3,0c0.1,0,0.2,0,0.2,0C482,28,482,35,482,42z"/>
	<path class="st0" d="M482,121c-2,0-4,0.1-6,0.1c-8.1,0-16.2,0-24.2,0c-1.1,0-1.4-0.3-1.3-1.4c0-6.2,0-12.4,0-18.6
		c0-0.7,0-1.1,0.9-1.1c10.1,0,20.2,0,30.3,0c0.1,0,0.2,0,0.2,0.1C482,107,482,114,482,121z"/>
	<path class="st0" d="M735,121c-4.2,0-8.4,0.1-12.6,0.1c-5.9,0-11.8,0-17.8,0c-0.8,0-1.2-0.1-1.2-1.1c0-6.3,0-12.6,0-18.9
		c0-0.7,0-1.1,0.9-1.1c10.1,0,20.2,0,30.3,0c0.1,0,0.2,0,0.2,0.1C735,107,735,114,735,121z"/>
	<path class="st0" d="M735.1,42c-1.7,0-3.5,0.1-5.2,0.1c-8.3,0-16.7,0-25,0c-1,0-1.3-0.2-1.3-1.3c0-6.2,0-12.4,0-18.7
		c0-0.8,0.1-1.2,1-1.2c10,0,20.1,0,30.1,0c0.1,0,0.3,0,0.4,0.1C735.1,28.1,735.1,35,735.1,42z"/>
	<path class="st0" d="M482,68.4c-6.1,0-12.3,0-18.4,0.1c-4,0-8,0-11.9,0c-0.9,0-1.2-0.2-1.2-1.1c0-6.3,0-12.5,0-18.8
		c0-0.6-0.1-1.1,0.9-1.1c10.1,0,20.2,0,30.4,0c0.1,0,0.2,0,0.2,0C482,54.4,482,61.4,482,68.4z"/>
	<path class="st0" d="M671.8,68.4c-2.2,0-4.3,0.1-6.5,0.1c-7.9,0-15.8,0-23.7,0c-1.1,0-1.3-0.3-1.3-1.4c0-6.2,0-12.4,0-18.6
		c0-0.7,0-1.1,0.9-1.1c10.1,0,20.2,0,30.3,0c0.1,0,0.2,0,0.2,0C671.8,54.4,671.8,61.4,671.8,68.4z"/>
	<path class="st0" d="M223.7,152.6c-6.8,0-13.6,0-20.5,0.1c-0.6,0-0.8-0.1-0.8-0.8c0-8.2,0-16.5,0-24.7c0-0.6,0.2-0.8,0.8-0.8
		c6.8,0,13.6,0.1,20.5,0.1C223.7,135.1,223.7,143.9,223.7,152.6z"/>
	<path class="st0" d="M281.7,94.7c-5.2,0-10.4,0.1-15.5,0.1c-3.2,0-6.5,0-9.7,0c-0.8,0-1-0.2-1-1c0-6.4,0-12.8,0-19.1
		c0-0.5-0.1-1,0.7-1c8.5,0,17,0.1,25.5,0.1C281.7,80.7,281.7,87.7,281.7,94.7z"/>
	<path class="st0" d="M281.7,121c-5.7,0-11.4,0-17.1,0.1c-2.7,0-5.5,0-8.2,0c-0.8,0-1-0.2-1-1c0-6.3,0-12.7,0-19c0-0.5-0.1-1,0.7-1
		c8.5,0,17,0.1,25.5,0.1C281.7,107.1,281.7,114,281.7,121z"/>
	<path class="st0" d="M281.7,42c-4.2,0-8.4,0.1-12.6,0.1s-8.4,0-12.6,0c-0.9,0-1.2-0.2-1.1-1.1c0-6.3,0-12.5,0-18.8
		c0-0.6-0.1-1.2,0.9-1.2c8.4,0,16.8,0,25.1,0c0.1,0,0.2,0,0.2,0C281.7,28.1,281.7,35,281.7,42z"/>
	<path class="st0" d="M281.7,68.4c-7.6,0-15.1,0.1-22.7,0.1c-1.1,0-2.7,0.5-3.4-0.2c-0.7-0.7-0.2-2.2-0.2-3.4c0-5.4,0-10.9,0-16.3
		c0-0.5-0.3-1.1,0.7-1.1c8.5,0,17,0,25.5,0.1C281.7,54.5,281.7,61.4,281.7,68.4z"/>
	<path class="st0" d="M223.7,94.7c-6.7,0-13.5,0-20.2,0.1c-0.6,0-0.8-0.2-0.8-0.8c0-6.5,0-13,0-19.5c0-0.6,0.2-0.8,0.8-0.8
		c6.7,0,13.5,0,20.2,0.1C223.7,80.7,223.7,87.7,223.7,94.7z"/>
	<path class="st0" d="M223.7,68.4c-6.7,0-13.4,0-20.1,0.1c-0.8,0-0.9-0.2-0.9-0.9c0-6.4,0-12.8,0-19.2c0-0.6,0-1,0.8-0.9
		c6.7,0,13.5,0,20.2,0.1C223.7,54.4,223.7,61.4,223.7,68.4z"/>
	<path class="st0" d="M223.7,121c-6.7,0-13.5,0-20.2,0.1c-0.7,0-0.9-0.2-0.9-0.9c0-6.4,0-12.8,0-19.3c0-0.7,0.2-0.9,0.9-0.9
		c6.7,0,13.5,0,20.2,0.1C223.7,107.1,223.7,114,223.7,121z"/>
	<path class="st1" d="M555.7,152.6c0-8.7,0-17.4,0-26.1c5.1,0,10.1,0,15.2-0.1c0.8,0,0.9,0.4,0.9,1.1c0,4.3,0,8.6,0,12.8
		c0,3.8,0,7.6,0,11.4c0,0.6,0,1-0.9,1C565.8,152.6,560.8,152.6,555.7,152.6z"/>
	<path class="st1" d="M482,152.6c0-8.7,0-17.4,0-26.1c5,0,10,0,15-0.1c0.6,0,0.8,0.3,0.8,0.9c0,8.2,0,16.4,0,24.6
		c0,0.6-0.2,0.8-0.8,0.8C492,152.6,487,152.6,482,152.6z"/>
	<path class="st1" d="M55,152.6c0-8.7,0-17.4,0-26.1c5,0,10,0,15-0.1c0.7,0,0.8,0.3,0.8,0.9c0,8.1,0,16.3,0,24.4
		c0,0.6-0.2,0.9-0.9,0.9C65,152.6,60,152.6,55,152.6z"/>
	<path class="st1" d="M223.7,152.6c0-8.7,0-17.4,0-26.1c5,0,10,0,15-0.1c0.6,0,0.8,0.3,0.8,0.9c0,8.2,0,16.4,0,24.6
		c0,0.6-0.2,0.8-0.8,0.8C233.8,152.6,228.7,152.6,223.7,152.6z"/>
	<path class="st1" d="M671.9,152.6c0-8.7,0-17.4,0-26.1c4.9,0,9.8,0,14.8-0.1c0.8,0,0.9,0.3,0.9,1c0,8.1,0,16.2,0,24.3
		c0,0.7-0.2,1-0.9,1C681.8,152.6,676.8,152.6,671.9,152.6z"/>
	<path class="st1" d="M671.8,94.7c0-7,0-14,0-21c5.1,0,10.1-0.1,15.2-0.1c0.6,0,0.8,0.2,0.8,0.8c0,6.5,0,13,0,19.6
		c0,0.6-0.2,0.8-0.8,0.8C681.9,94.8,676.8,94.8,671.8,94.7z"/>
	<path class="st1" d="M735,94.7c0-7,0-14,0-21c5.1,0,10.2,0,15.3-0.1c0.9,0,0.8,0.6,0.8,1.2c0,4.3,0,8.6,0,12.9c0,2,0,4.1,0,6.1
		c0,0.5,0,1-0.8,1C745.2,94.8,740.1,94.8,735,94.7z"/>
	<path class="st1" d="M134,94.6c0-1.3,0-2.7,0-4c-0.1-1,0.3-1.3,1.3-1.2c1,0.1,2.1,0,3.1,0c0.9,0.1,1.1-0.3,1.1-1.1
		c-0.1-1,0-2.1,0-3.1c-0.1-1,0.3-1.3,1.3-1.2c1,0.1,2.1,0,3.1,0c0.6,0,0.9-0.2,0.8-0.8c0-1,0.1-2,0-3c-0.1-1,0.3-1.3,1.3-1.2
		c1,0.1,2,0,3,0c0.8,0.1,1-0.3,1-1.1c0-1.4,0-2.8,0-4.3c5.1,0,10.2-0.1,15.3-0.1c0.6,0,0.7,0.3,0.7,0.8c0,1.3,0,2.6,0,3.9
		c0,0.6-0.2,0.7-0.8,0.7c-1.1,0-2.2,0.1-3.4,0c-1-0.1-1.3,0.3-1.2,1.2c0.1,1,0,2.1,0,3.1c0,0.7-0.2,0.9-0.9,0.9c-1,0-2.1,0.1-3.1,0
		c-1.1-0.1-1.3,0.3-1.3,1.3c0.1,1,0,2,0,3c0,0.7-0.2,1-0.9,1c-1.2-0.1-2.3,0-3.5,0c-0.6,0-0.9,0.2-0.8,0.8c0,1.2,0,2.4,0,3.6
		c0,0.6-0.1,0.9-0.8,0.9c-5,0-9.9,0-14.9,0C134.2,94.8,134.1,94.7,134,94.6z"/>
	<path class="st1" d="M555.7,121c0-7,0-13.9,0-20.9c5.1,0,10.1,0,15.2-0.1c0.6,0,0.8,0.2,0.8,0.8c0,6.5,0,13,0,19.4
		c0,0.5-0.1,0.8-0.7,0.8C565.9,121,560.8,121,555.7,121z"/>
	<path class="st1" d="M735,121c0-7,0-13.9,0-20.9c5,0,10.1,0,15.2-0.1c1,0,0.9,0.5,0.9,1.2c0,4.7,0,9.5,0,14.2c0,1.6,0,3.2,0,4.8
		c0,0.7-0.2,0.9-0.9,0.9C745.2,121,740.1,121,735,121z"/>
	<path class="st1" d="M671.8,42c0-7,0-13.9,0-20.9c5.1,0,10.2,0,15.3-0.1c0.6,0,0.7,0.3,0.7,0.8c0,6.5,0,12.9,0,19.4
		c0,0.6-0.2,0.8-0.8,0.8C681.9,42,676.8,42,671.8,42z"/>
	<path class="st1" d="M160.4,68.4c0-1.5,0-2.9,0-4.4c0-0.7,0.2-1,1-1c1.1,0,2.2,0,3.4,0c0.7,0,0.9-0.2,0.9-0.9c0-1.1,0-2.2,0-3.4
		c0-0.7,0.3-1,1-1c1.1,0,2.2,0,3.4,0c0.6,0,0.9-0.2,0.8-0.8c0-1.1,0-2.2,0-3.4c0-0.8,0.3-1,1.1-1c2.8,0,5.6,0,8.4,0
		c0.9,0,1.2-0.2,1.2-1.2c-0.1-1.3,0-2.7,0-4c5.1,0,10.2,0,15.3-0.1c0.6,0,0.8,0.2,0.8,0.8c0,1.2-0.1,2.3,0,3.5c0.1,0.8-0.3,1-1.1,1
		c-2.8,0-5.6,0-8.4,0c-0.9,0-1.1,0.3-1.1,1.2c0,1.3,0.6,3-0.2,3.9c-0.8,0.8-2.5,0.2-3.8,0.2c-1,0-1.3,0.3-1.2,1.2c0.1,1,0,2,0,3
		c0.1,0.9-0.3,1.2-1.2,1.1c-1-0.1-2,0-3,0c-0.9-0.1-1.3,0.2-1.2,1.1c0.1,1.1,0,2.2,0,3.2c0,0.7-0.2,0.9-0.9,0.9
		C170.4,68.4,165.4,68.4,160.4,68.4z"/>
	<path class="st1" d="M482,94.7c0-7,0-14,0-21c5,0,10-0.1,15-0.1c0.6,0,0.8,0.2,0.8,0.8c0,6.5,0,13,0,19.5c0,0.6-0.2,0.8-0.8,0.8
		C492,94.8,487,94.8,482,94.7z"/>
	<path class="st1" d="M55,94.7c0-7,0-14,0-21c5,0,10,0,15-0.1c0.6,0,0.8,0.2,0.8,0.8c0,6.5,0,13,0,19.6c0,0.6-0.2,0.8-0.8,0.8
		C65.1,94.8,60,94.8,55,94.7z"/>
	<path class="st1" d="M223.7,94.7c0-7,0-14,0-21c5,0,10,0,15-0.1c0.6,0,0.8,0.2,0.8,0.8c0,6.5,0,13,0,19.5c0,0.6-0.2,0.8-0.8,0.8
		C233.8,94.8,228.7,94.8,223.7,94.7z"/>
	<path class="st1" d="M281.7,94.7c0-7,0-14,0-21c5,0,10,0,15-0.1c0.6,0,0.9,0.2,0.9,0.8c0,6.5,0,13,0,19.5c0,0.6-0.2,0.8-0.8,0.8
		C291.7,94.8,286.7,94.8,281.7,94.7z"/>
	<path class="st1" d="M571.6,68.4c0-1.4,0-2.8,0-4.1c0-1,0.4-1.3,1.3-1.2c1,0.1,2,0,3,0c0.9,0.1,1.3-0.2,1.2-1.1
		c-0.1-0.9,0-1.9,0-2.8c-0.1-0.9,0.2-1.3,1.2-1.2c1,0.1,2,0,3,0c0.8,0,1.1-0.2,1-1c-0.1-1.1,0-2.2,0-3.4c0-0.6,0.2-0.8,0.8-0.8
		c1.2,0,2.3,0,3.5,0c0.7,0,0.9-0.2,0.9-0.9c0-1.4,0-2.8,0-4.3c5,0,10,0,15-0.1c0.7,0,0.9,0.3,0.8,0.9c0,1.4,0.4,3.1-0.2,4
		c-0.7,0.9-2.5,0.3-3.8,0.3c-1,0-1.2,0.3-1.2,1.2c0.1,1,0,2.1,0,3.1c0,0.7-0.3,1-1,1c-1.1,0-2.2,0-3.2,0c-0.8,0-1.1,0.2-1,1
		c0.1,1.2,0,2.3,0,3.5c0,0.6-0.2,0.8-0.8,0.8c-1.2,0-2.3,0-3.5,0c-0.8,0-1,0.2-1,1c0,1.1,0,2.2,0,3.4c0,0.6-0.1,0.9-0.9,0.9
		C581.7,68.4,576.6,68.4,571.6,68.4z"/>
	<path class="st1" d="M598,42c0-1.3,0-2.7,0-4c-0.1-1,0.3-1.3,1.3-1.2c0.9,0.1,1.8,0,2.7,0c0.9,0.1,1.3-0.2,1.3-1.2
		c-0.1-0.9,0-1.9,0-2.8c-0.1-0.9,0.2-1.3,1.2-1.2c1,0.1,2-0.1,3,0c1.1,0.1,1.4-0.4,1.3-1.4c-0.1-0.9,0-1.9,0-2.8
		c-0.1-0.9,0.2-1.2,1.1-1.2c1,0.1,2.1,0,3.1,0c0.7,0,1-0.2,1-1c0-1.4,0-2.8,0-4.1c5,0,10,0,15-0.1c0.6,0,0.8,0.2,0.8,0.8
		c0,1.2,0,2.5,0,3.8c0,0.6-0.3,0.8-0.9,0.8c-1.2,0-2.3,0-3.5,0c-0.7,0-0.9,0.2-0.9,0.9c0,1.1,0,2.2,0,3.4c0,0.8-0.3,1-1,1
		c-1-0.1-2,0.1-3,0c-1.1-0.1-1.3,0.3-1.2,1.3c0.1,0.9,0,1.9,0,2.8s-0.3,1.2-1.2,1.1c-1-0.1-2.1,0-3.1,0c-0.8,0-1.1,0.2-1,1
		c0,1.1,0,2.2,0,3.2c0,0.6-0.2,0.9-0.9,0.9C608,42,603,42,598,42z"/>
	<path class="st1" d="M223.7,121c0-7,0-13.9,0-20.9c5,0,10,0,15-0.1c0.6,0,0.8,0.2,0.8,0.8c0,6.5,0,12.9,0,19.4
		c0,0.6-0.2,0.8-0.8,0.8C233.8,121,228.7,121,223.7,121z"/>
	<path class="st1" d="M482,121c0-7,0-13.9,0-20.9c5,0,10,0,15-0.1c0.6,0,0.8,0.2,0.8,0.8c0,6.5,0,12.9,0,19.4c0,0.6-0.2,0.8-0.8,0.8
		C492,121,487,121,482,121z"/>
	<path class="st1" d="M223.7,68.4c0-7,0-14,0-20.9c5,0,10,0,15-0.1c0.7,0,0.9,0.3,0.9,0.9c0,6.4,0,12.8,0,19.3
		c0,0.7-0.2,0.9-0.9,0.9C233.7,68.4,228.7,68.4,223.7,68.4z"/>
	<path class="st1" d="M671.9,121c0-7,0-13.9,0-20.9c5,0,9.9,0,14.9-0.1c0.7,0,1,0.2,1,0.9c0,6.4,0,12.8,0,19.1c0,0.7-0.2,1-1,1
		C681.9,121,676.9,121,671.9,121z"/>
	<path class="st1" d="M223.8,42.1c0-7,0-14,0-21c5,0,10,0,15-0.1c0.7,0,0.9,0.3,0.9,0.9c0,6.4,0,12.8,0,19.1c0,1-0.5,1-1.2,1
		C233.5,42.1,228.6,42.1,223.8,42.1z"/>
	<path class="st1" d="M281.7,42c0-7,0-13.9,0-20.9c5,0,10,0,15-0.1c0.6,0,0.9,0.2,0.9,0.8c0,6.5,0,12.9,0,19.4
		c0,0.6-0.2,0.8-0.8,0.8C291.7,42,286.7,42,281.7,42z"/>
	<path class="st1" d="M482,42c0-7,0-14,0-20.9c5,0,10,0,15-0.1c0.6,0,0.8,0.2,0.8,0.8c0,6.5,0,13,0,19.4c0,0.6-0.2,0.8-0.8,0.8
		C492,42,487,42,482,42z"/>
	<path class="st1" d="M281.7,121c0-7,0-13.9,0-20.9c5,0,10,0,15-0.1c0.7,0,0.8,0.3,0.8,0.9c0,6.4,0,12.8,0,19.1c0,0.6-0.1,1-0.8,0.9
		C291.7,121,286.7,121,281.7,121z"/>
	<path class="st1" d="M671.8,68.4c0-7,0-13.9,0-20.9c5,0,10,0,15-0.1c0.6,0,0.8,0.2,0.8,0.8c0,6.5,0,12.9,0,19.4
		c0,0.6-0.2,0.8-0.8,0.8C681.8,68.4,676.8,68.4,671.8,68.4z"/>
	<path class="st1" d="M55,121c0-7,0-13.9,0-20.9c5,0,10,0,15-0.1c0.6,0,0.8,0.2,0.8,0.8c0,6.5,0,13,0,19.4c0,0.6-0.2,0.8-0.8,0.8
		C65.1,121,60,121,55,121z"/>
	<path class="st1" d="M735.1,42c0-7,0-13.9,0-20.9c5,0,10,0,15-0.1c0.6,0,0.8,0.2,0.8,0.8c0,6.5,0,12.9,0,19.4
		c0,0.6-0.2,0.8-0.8,0.8C745.1,42,740.1,42,735.1,42z"/>
	<path class="st1" d="M482,68.4c0-7,0-13.9,0-20.9c5,0,10,0,15-0.1c0.6,0,0.8,0.2,0.8,0.8c0,6.5,0,12.9,0,19.4
		c0,0.6-0.2,0.8-0.8,0.8C492,68.4,487,68.4,482,68.4z"/>
	<path class="st1" d="M281.7,68.4c0-7,0-13.9,0-20.9c5,0,10,0,15-0.1c0.7,0,0.9,0.3,0.9,0.9c0,6.4,0,12.8,0,19.2
		c0,0.6-0.1,0.9-0.9,0.9C291.7,68.4,286.7,68.4,281.7,68.4z"/>
	<path class="st1" d="M735,68.4c0-7,0-13.9,0-20.9c5,0,10,0,15-0.1c0.6,0,0.8,0.2,0.8,0.8c0,6.5,0,12.9,0,19.4
		c0,0.6-0.2,0.8-0.8,0.8C745.1,68.4,740.1,68.4,735,68.4z"/>
	<path class="st1" d="M382,152.6c0-8.7,0-17.4,0-26.1c3.2,0,6.4,0,9.6-0.1c0.7,0,0.9,0.3,0.9,0.9c0,8.1,0,16.3,0,24.4
		c0,0.7-0.2,0.9-0.9,0.9C388.4,152.6,385.2,152.6,382,152.6z"/>
	<path class="st1" d="M381.8,84.2c0-7,0-13.9,0-20.9c3.3,0,6.6,0,9.9-0.1c0.6,0,0.8,0.2,0.8,0.8c0,6.5,0,12.9,0,19.4
		c0,0.6-0.2,0.8-0.8,0.8C388.4,84.2,385.1,84.2,381.8,84.2z"/>
	<path class="st1" d="M70.9,68.4c0-3,0-5.9,0-8.9c0-1.7,0-1.7,1.6-1.7c2.6,0,5.2,0,7.8,0c0.8,0,1.1-0.2,1-1c-0.1-1.1,0-2.2,0-3.4
		c0-0.6,0.2-0.8,0.8-0.8c1.6,0,3.1,0.1,4.7,0.1c0,3.1-0.1,6.3,0,9.4c0,0.9-0.2,1.2-1.2,1.2c-1-0.1-2.1,0-3.1,0c-0.8,0-1.1,0.2-1,1
		c0.1,1.1,0,2.2,0,3.2c0,0.7-0.1,1-0.9,1C77.3,68.4,74.1,68.4,70.9,68.4z"/>
	<path class="st1" d="M128.8,42.1c0-7,0-14,0-21.1c1.5,0,3,0,4.5-0.1c0.7,0,0.9,0.2,0.9,0.9c0,6.5,0,13,0,19.5
		c0,0.5-0.1,0.9-0.8,0.9C131.9,42.2,130.3,42.2,128.8,42.1z"/>
	<path class="st1" d="M134.2,52.6c0,1.5-0.1,3,0,4.5c0,0.7-0.2,0.9-0.9,0.9c-1.2,0-2.4-0.1-3.6,0c-0.8,0-0.9-0.3-0.9-1
		c0-3.2,0-6.4,0-9.6c1.5,0,3,0,4.5-0.1c0.8,0,0.9,0.3,0.9,1C134.2,49.8,134.2,51.2,134.2,52.6z"/>
	<path class="st1" d="M128.8,15.8c0-1.5,0-2.9,0-4.4c0-0.7,0.2-1,1-1c1.5,0,2.9,0,4.4,0c0,1.5,0,3.1,0.1,4.7c0,0.6-0.2,0.8-0.8,0.8
		C131.9,15.8,130.3,15.8,128.8,15.8z"/>
	<path class="st1" d="M91.9,52.6c0-1.7,0-3.4,0-5.1c1.8-0.1,3.6-0.1,5.4,0c0,1.7,0.1,3.5-0.1,5.2C95.4,52.6,93.7,52.6,91.9,52.6z"/>
</g>
</svg>
